<?xml version="1.0" standalone="no"?>
<!DOCTYPE svg PUBLIC "-//W3C//DTD SVG 20010904//EN"
 "http://www.w3.org/TR/2001/REC-SVG-20010904/DTD/svg10.dtd">
<svg version="1.0" xmlns="http://www.w3.org/2000/svg"
 width="260.000000pt" height="260.000000pt" viewBox="0 0 260.000000 260.000000"
 preserveAspectRatio="xMidYMid meet">
<metadata>
Created by potrace 1.11, written by Peter Selinger 2001-2013
</metadata>
<g transform="translate(0.000000,260.000000) scale(0.100000,-0.100000)"
fill="#000000" stroke="none">
<path d="M998 1827 c-32 -79 -58 -149 -58 -156 0 -6 43 -117 95 -246 52 -129
95 -236 95 -238 0 -2 -86 -4 -190 -4 -172 0 -213 -4 -199 -18 3 -2 95 -6 205
-7 l199 -3 32 -80 c18 -44 32 -95 33 -113 0 -47 -25 -89 -68 -111 l-37 -20
257 -1 257 0 -48 49 c-58 59 -95 134 -256 511 -64 151 -127 298 -140 325 -12
28 -41 96 -65 153 -24 56 -46 102 -49 102 -3 0 -32 -65 -63 -143z"/>
<path d="M1571 1187 c19 -12 45 -43 59 -67 l25 -45 0 -425 0 -425 -27 -46
c-15 -26 -42 -56 -60 -68 l-33 -21 188 0 187 0 1 478 c0 262 2 487 5 500 7 37
52 101 87 122 l32 20 -249 0 -249 0 34 -23z"/>
<path d="M677 1014 c-28 -57 -96 -154 -108 -154 -4 0 -9 -7 -13 -15 -5 -13 12
-15 117 -15 l122 0 -32 20 c-18 10 -39 30 -48 44 -19 29 -27 110 -13 145 17
45 2 30 -25 -25z"/>
<path d="M2465 473 c-31 -83 -82 -177 -124 -231 -66 -84 -146 -125 -272 -141
-48 -6 -9 -9 158 -10 122 0 224 2 226 6 3 5 8 53 12 108 3 55 8 129 11 165 2
36 6 84 9 108 2 23 3 42 1 42 -2 0 -11 -21 -21 -47z"/>
</g>
</svg>
